<svg width="100" height="100" viewBox="0 0 100 100" fill="none" xmlns="http://www.w3.org/2000/svg">
<path d="M33.5861 95.4492C34.6876 95.4494 35.7873 95.3596 36.8742 95.1809C37.223 95.1244 37.5816 95.0557 37.9371 94.9768C39.9293 94.5366 41.8431 93.7968 43.6133 92.7824C48.8971 89.7647 53.059 84.2555 55.332 77.2697C56.097 74.9046 56.6378 72.4728 56.9475 70.0065C57.7008 70.0801 58.4609 70.1211 59.2285 70.1211C63.8832 70.1211 68.7729 68.7752 73.5766 66.1475C79.7859 62.7508 85.2842 57.5014 89.4768 50.9668C98.9527 36.2031 99.2119 18.6746 90.0945 9.28928C88.5299 7.67546 86.7044 6.33697 84.6947 5.3301C78.6488 2.2967 71.2059 2.3924 63.7377 5.59904C56.3791 8.75822 49.643 14.6811 44.7697 22.2752C43.329 24.5184 42.076 26.8767 41.0232 29.326C36.7531 26.186 31.9607 24.3783 27.049 24.3164C25.511 24.2973 23.9758 24.4545 22.4736 24.7852C21.7836 24.9369 21.1023 25.126 20.4328 25.3516C14.018 27.4947 8.83359 32.8356 5.83495 40.3906C2.87988 47.8321 2.32245 56.7844 4.26484 65.5959C8.1082 83.0403 20.593 95.4492 33.5861 95.4492ZM88.892 12.6391C92.0441 16.5319 93.7121 21.9604 93.6164 28.117C93.5078 35.1319 91.1035 42.6483 86.8469 49.2793C82.9359 55.3748 77.8285 60.2598 72.077 63.4061C67.1777 66.086 62.0404 67.3057 57.4285 66.9129C66.5134 59.7782 72.6308 49.5289 74.5984 38.1461C76.1706 29.103 80.551 20.7847 87.118 14.3719L88.892 12.6391ZM81.857 10.9961L84.2609 8.64904C84.4562 8.76408 84.6527 8.88225 84.8469 9.00588C85.501 9.42602 86.1254 9.8908 86.7156 10.3969L84.9348 12.1352C77.8974 19.0069 73.2034 27.9207 71.5191 37.6114C69.8178 47.4535 64.7862 56.4122 57.2672 62.9869C57.225 61.7229 57.1301 60.4505 56.9826 59.1699C63.4428 52.4517 67.7458 43.9546 69.3383 34.7713C70.8923 25.7219 75.2751 17.3981 81.857 10.9961ZM47.3992 23.9629C56.0434 10.4918 70.457 3.53518 81.2203 7.25119L79.674 8.76096C72.6211 15.6207 67.9246 24.5398 66.2594 34.2365C64.9152 41.9928 61.4947 49.24 56.3615 55.208C56.2926 54.8608 56.2213 54.5133 56.1447 54.1658C54.0734 44.7651 49.4537 36.744 43.5445 31.3906C44.5967 28.8007 45.8871 26.3141 47.3992 23.9629ZM28.5516 30.0135L28.5762 27.533C33.5582 28.0475 38.5812 30.6971 42.876 35.1084C47.7695 40.136 51.3982 47.143 53.0939 54.8385C54.7217 62.2283 54.4611 69.8514 52.3617 76.3033C50.7545 81.241 48.1312 85.3297 44.8262 88.1266C46.1819 76.6547 43.237 65.0875 36.5605 55.6606C31.3346 48.2952 28.5341 39.4842 28.5486 30.4531C28.5486 30.3074 28.5486 30.1635 28.5506 30.0135H28.5516ZM22.448 31.3586L22.4799 27.9992C22.7004 27.9406 22.9219 27.8862 23.1449 27.8371C23.905 27.6702 24.6756 27.5556 25.4514 27.4944L25.4268 29.9791C25.4246 30.1381 25.4246 30.2947 25.4246 30.4537C25.4089 40.1312 28.4097 49.5729 34.0098 57.4654C40.3235 66.3799 43.0593 77.3404 41.6752 88.1762L41.3894 90.4342C40.4505 90.9185 39.4686 91.3146 38.4564 91.6172L38.6713 89.9143C38.9181 87.9608 39.042 85.9937 39.0424 84.0246C39.0592 74.3449 36.0582 64.9008 30.457 57.0063C25.1417 49.5194 22.3373 40.5398 22.4471 31.3586H22.448ZM19.3426 29.1674L19.3221 31.3281C19.2047 41.1662 22.2098 50.7881 27.9055 58.8106C33.1325 66.1775 35.9332 74.9906 35.918 84.0235C35.9174 85.8613 35.8016 87.6974 35.5711 89.5207L35.2266 92.2447C29.6646 92.7721 23.8801 90.5467 18.8135 85.8971C13.2559 80.7965 9.17304 73.3481 7.31699 64.9237C3.87109 49.2934 9.11249 34.1729 19.3426 29.1674Z" fill="#9A8177"/>
<path d="M56.6697 22.6019C57.0645 22.6023 57.4448 22.4528 57.7336 22.1835C58.389 21.5737 59.0781 20.9843 59.7816 20.4315C59.9429 20.3048 60.0777 20.1474 60.1782 19.9685C60.2788 19.7897 60.3431 19.5927 60.3675 19.389C60.3919 19.1853 60.376 18.9787 60.3206 18.7811C60.2652 18.5836 60.1714 18.3988 60.0446 18.2375C59.9178 18.0762 59.7605 17.9414 59.5816 17.8409C59.4027 17.7403 59.2058 17.676 59.002 17.6516C58.7983 17.6272 58.5918 17.6431 58.3942 17.6985C58.1966 17.7539 58.0119 17.8477 57.8506 17.9745C57.0795 18.58 56.324 19.2267 55.6045 19.8952C55.3746 20.109 55.2145 20.387 55.1449 20.6931C55.0754 20.9992 55.0996 21.3191 55.2145 21.6112C55.3294 21.9033 55.5296 22.1541 55.789 22.3308C56.0484 22.5075 56.355 22.6019 56.6689 22.6019H56.6697Z" fill="#9A8177"/>
<path d="M48.6855 32.1963C48.8692 32.2878 49.0691 32.3422 49.2738 32.3564C49.4785 32.3705 49.684 32.3442 49.8785 32.2789C50.0731 32.2136 50.2528 32.1106 50.4075 31.9758C50.5622 31.841 50.6888 31.677 50.7801 31.4932C51.7757 29.4919 52.9751 27.5986 54.3592 25.8434C54.4892 25.6826 54.5861 25.4976 54.6441 25.2991C54.7022 25.1006 54.7202 24.8926 54.6973 24.6871C54.6743 24.4816 54.6108 24.2826 54.5104 24.1019C54.4099 23.9211 54.2746 23.762 54.1123 23.6339C53.9499 23.5058 53.7638 23.4113 53.5646 23.3556C53.3654 23.3 53.1572 23.2845 52.9519 23.31C52.7467 23.3355 52.5486 23.4014 52.3691 23.5041C52.1895 23.6067 52.0321 23.7439 51.906 23.9078C50.3884 25.832 49.0734 27.9077 47.982 30.102C47.7976 30.473 47.7682 30.9021 47.9001 31.2948C48.032 31.6875 48.3146 32.0118 48.6855 32.1963Z" fill="#9A8177"/>
<path d="M18.457 80.7113C18.7264 81.0263 19.1098 81.2214 19.523 81.2537C19.9362 81.2859 20.3453 81.1527 20.6603 80.8834C20.9753 80.614 21.1704 80.2306 21.2027 79.8174C21.2349 79.4042 21.1017 78.9951 20.8324 78.6801C20.2505 77.9994 19.69 77.2863 19.1673 76.5605C18.9251 76.2243 18.5593 75.998 18.1502 75.9315C17.7412 75.865 17.3225 75.9637 16.9862 76.2059C16.6499 76.4482 16.4237 76.814 16.3572 77.2231C16.2907 77.6321 16.3894 78.0508 16.6316 78.3871C17.2056 79.1832 17.8197 79.965 18.457 80.7113Z" fill="#9A8177"/>
<path d="M22.3119 84.575C24.171 86.1718 26.19 87.5725 28.3367 88.7547C28.5166 88.8544 28.7143 88.9176 28.9186 88.9408C29.1229 88.9639 29.3297 88.9465 29.5273 88.8896C29.7248 88.8326 29.9092 88.7372 30.0698 88.6089C30.2304 88.4805 30.3642 88.3218 30.4633 88.1416C30.5624 87.9615 30.625 87.7636 30.6475 87.5592C30.67 87.3549 30.652 87.1481 30.5944 86.9507C30.5369 86.7533 30.4409 86.5692 30.3121 86.409C30.1832 86.2488 30.024 86.1156 29.8436 86.017C27.8856 84.9388 26.044 83.6614 24.3483 82.2051C24.0334 81.9389 23.6262 81.808 23.2152 81.8408C22.8043 81.8735 22.4229 82.0674 22.1543 82.3801C21.8856 82.6928 21.7515 83.099 21.781 83.5102C21.8105 83.9214 22.0014 84.3043 22.3119 84.5754V84.575Z" fill="#9A8177"/>
</svg>
