<svg width="100" height="100" viewBox="0 0 100 100" fill="none" xmlns="http://www.w3.org/2000/svg">
<g clip-path="url(#clip0)">
<path d="M86.825 8.83867H81.954L80.601 2.29035C80.3029 0.849916 79.0171 -0.195312 77.544 -0.195312H22.4781C21.0043 -0.195312 19.7185 0.849916 19.4212 2.29035L18.0674 8.83867H13.1964C11.0453 8.83867 9.2955 10.585 9.2955 12.732V19.1689C9.2955 21.3158 11.0453 23.0629 13.1964 23.0629H15.1105L16.1953 30.6702C15.8666 30.8594 15.5669 31.1013 15.3123 31.3935C14.6611 32.1435 14.3675 33.1368 14.5074 34.1203L21.7489 84.8993C21.9484 86.3001 23.0025 87.4109 24.3342 87.739L25.3646 94.9686C25.7583 97.7259 28.1586 99.8049 30.9488 99.8049H69.0734C71.8635 99.8049 74.2639 97.7259 74.6575 94.9686L75.688 87.739C77.0196 87.4109 78.0738 86.3001 78.2733 84.8993L85.5148 34.1203C85.6547 33.1368 85.3611 32.1435 84.7098 31.3935C84.4553 31.1013 84.1556 30.8594 83.8261 30.6702L84.9116 23.0629H86.8258C88.9769 23.0629 90.7267 21.3158 90.7267 19.1689V12.732C90.7259 10.585 88.9761 8.83867 86.825 8.83867ZM82.6053 33.7067L75.3639 84.4858C75.3295 84.7269 75.12 84.9077 74.8769 84.9077H60.8167C60.0057 84.9077 59.3482 85.5638 59.3482 86.3741C59.3482 87.1843 60.0057 87.8405 60.8167 87.8405H72.7059L71.7481 94.5559C71.5593 95.8765 70.4096 96.8729 69.0726 96.8729H30.9488C29.6118 96.8729 28.4621 95.8765 28.2733 94.5559L27.3162 87.8405H53.9804C54.7922 87.8405 55.4496 87.1843 55.4496 86.3741C55.4496 85.5638 54.7922 84.9077 53.9804 84.9077H25.1445C24.9014 84.9077 24.6919 84.7269 24.6575 84.4858L17.4161 33.7067C17.3885 33.5137 17.4765 33.3787 17.5315 33.3153C17.5842 33.2551 17.6989 33.1589 17.8778 33.1498C17.8977 33.149 17.9168 33.1475 17.9374 33.146H82.084C82.1039 33.1475 82.1237 33.149 82.1436 33.1498C82.3225 33.1589 82.4372 33.2551 82.4899 33.3153C82.545 33.3787 82.6329 33.5137 82.6053 33.7067ZM18.0788 23.0629H81.9433L80.9236 30.214H19.0986L18.0788 23.0629ZM87.7882 19.1689C87.7882 19.6991 87.3563 20.1302 86.825 20.1302H13.1964C12.6659 20.1302 12.2332 19.6991 12.2332 19.1689V12.732C12.2332 12.2017 12.6659 11.7707 13.1964 11.7707H26.3423C27.1534 11.7707 27.8108 11.1145 27.8108 10.3043C27.8108 9.4948 27.1534 8.83867 26.3423 8.83867H21.0678L22.2985 2.88315C22.3161 2.79847 22.3918 2.73667 22.4781 2.73667H77.544C77.6304 2.73667 77.7061 2.79847 77.7237 2.88315L78.9544 8.83867H33.1787C32.3668 8.83867 31.7094 9.4948 31.7094 10.3043C31.7094 11.1145 32.3668 11.7707 33.1787 11.7707H86.825C87.3563 11.7707 87.7882 12.2017 87.7882 12.732V19.1689Z" fill="#9A8177"/>
<path d="M61.0613 46.9574C61.0514 46.9475 61.0407 46.9383 61.03 46.9284C56.1468 42.1051 47.2511 43.1061 41.17 49.176C38.2637 52.076 36.4107 55.7007 35.952 59.3826C35.4758 63.2004 36.5422 66.6283 38.954 69.0354C38.954 69.0361 38.9547 69.0361 38.9555 69.0369C38.9593 69.0407 38.9631 69.0445 38.9669 69.0476C41.0019 71.0717 43.7607 72.1421 46.8681 72.1421C47.4422 72.1421 48.0293 72.1047 48.6248 72.0314C52.3139 71.5737 55.9458 69.7235 58.8521 66.8236C64.9485 60.7384 65.943 51.8295 61.0682 46.9642C61.0659 46.9612 61.0636 46.9597 61.0613 46.9574ZM38.8676 59.7443C39.246 56.707 40.8016 53.6903 43.247 51.2489C46.1771 48.3246 49.8456 46.7834 53.1258 46.7834C54.6332 46.7834 56.0574 47.1107 57.2912 47.7775C54.8243 49.2401 50.9938 52.1172 49.8288 56.3812C48.8151 60.0884 43.3158 64.1953 40.2978 66.0996C39.0686 64.4142 38.561 62.2017 38.8676 59.7443ZM56.7744 64.7499C54.3282 67.1913 51.3056 68.7432 48.2624 69.1208C46.1129 69.3878 44.1498 69.0361 42.5621 68.1267C45.5915 66.1309 51.3943 61.7958 52.6633 57.1526C53.6991 53.36 57.7934 50.8064 59.6632 49.8138C62.5711 53.6774 61.4 60.1326 56.7744 64.7499Z" fill="#9A8177"/>
</g>
<defs>
<clipPath id="clip0">
<rect width="100" height="100" fill="white"/>
</clipPath>
</defs>
</svg>
